<svg width="1574" height="1100" viewBox="0 0 1574 1100" fill="none" xmlns="http://www.w3.org/2000/svg">
<g clip-path="url(#clip0_47_4)">
<path d="M408.041 638.775C280.545 638.775 177.198 535.448 177.198 407.977C177.198 280.477 280.545 177.121 408.041 177.121C535.536 177.121 638.898 280.477 638.898 407.977C638.898 535.448 535.536 638.775 408.041 638.775ZM1574 691.163V254.785C1573.94 116.417 1461.85 4.35852 1323.45 4.30121C1185 4.35852 1072.95 116.417 1072.91 254.785V565.011C1072.82 605.513 1040 638.345 999.488 638.417C958.992 638.345 926.168 605.513 926.068 565.011V48.2731H748.928V183.873C675.981 73.1766 550.608 0.0574341 408.069 6.10352e-05C182.661 0.0717773 0.0718282 182.64 0.0288086 407.977C0.0718282 633.284 182.661 815.824 408.069 815.896C554.981 815.839 683.653 738.218 755.481 621.786C781.25 732.798 880.611 815.466 999.488 815.509C1137.9 815.466 1249.99 703.421 1250.03 565.011V254.785C1250.11 214.297 1282.93 181.508 1323.45 181.408C1363.94 181.508 1396.76 214.297 1396.85 254.785V691.163" fill="#E4222B"/>
<path d="M258.433 1061.5H339.754C351.284 1061.5 360.59 1052.17 360.59 1040.7C360.59 1029.16 351.255 1019.83 339.754 1019.83H302.471C271.138 1019.83 245.757 994.45 245.757 963.152C245.757 931.826 271.138 906.478 302.471 906.478H374.514V942.292H302.471C290.985 942.292 281.635 951.64 281.635 963.152C281.635 974.636 290.985 983.984 302.471 983.984H339.726C371.058 983.984 396.44 1009.38 396.44 1040.7C396.44 1071.97 371.058 1097.35 339.754 1097.35H258.433" fill="black"/>
<path d="M442.729 1061.5H524.036C535.565 1061.5 544.9 1052.17 544.9 1040.7C544.9 1029.16 535.551 1019.83 524.036 1019.83H486.781C455.463 1019.83 430.081 994.45 430.081 963.152C430.081 931.826 455.463 906.478 486.781 906.478H558.796V942.292H486.781C475.237 942.292 465.931 951.64 465.931 963.152C465.931 974.636 475.266 983.984 486.781 983.984H524.036C555.34 983.984 580.736 1009.38 580.736 1040.7C580.736 1071.97 555.34 1097.35 524.036 1097.35H442.729" fill="black"/>
<path d="M1059.41 1097.35H1028.8C997.394 1097.35 971.897 1071.9 971.897 1040.49V871.165H1007.75V906.463H1041.92V942.292H1007.75V1040.49C1007.75 1052.11 1017.21 1061.5 1028.83 1061.5H1059.41" fill="black"/>
<path d="M37.6992 1001.68C37.6992 1035.18 64.8446 1062.31 98.3712 1062.31C131.855 1062.31 159.014 1035.18 159.014 1001.68C159.014 968.213 131.855 941.059 98.3712 941.059C64.8446 941.059 37.6992 968.213 37.6992 1001.68ZM196.7 1042.21C196.7 1052.04 204.515 1060.2 213.965 1061.5V1097.33C195.137 1096.4 179.277 1087.07 169.44 1073.16L168.006 1071.13L166.199 1072.86C148.546 1089.68 124.67 1100 98.3712 1100C44.0518 1100 -0.000244141 1055.99 -0.000244141 1001.68C-0.000244141 947.367 44.0518 903.367 98.3712 903.367C152.676 903.367 196.7 947.367 196.7 1001.68C196.7 1003.14 196.7 1042.21 196.7 1042.21Z" fill="black"/>
<path d="M655.919 1097.35V1041.73L588.766 906.463H629.735L674.934 1000.82L720.09 906.463H761.073L693.92 1041.73V1097.35" fill="black"/>
<path d="M786.341 1061.5H871.562C883.077 1061.5 892.412 1052.17 892.412 1040.7C892.412 1029.16 883.077 1019.83 871.562 1019.83H834.307C802.989 1019.83 777.593 994.45 777.593 963.152C777.593 931.826 802.989 906.478 834.307 906.478H906.308V942.292H834.307C822.792 942.292 813.457 951.64 813.457 963.152C813.457 974.636 822.792 983.984 834.307 983.984H871.562C902.895 983.984 928.248 1009.38 928.248 1040.7C928.248 1071.97 902.895 1097.35 871.562 1097.35H786.341" fill="black"/>
<path d="M1121.72 987.024C1125.65 958.708 1148.65 939.21 1175.71 939.138C1202.76 939.21 1225.96 958.966 1230.45 987.024H1121.72ZM1175.71 903.353C1123.43 903.482 1082.29 947.382 1082.19 1000.34C1082.29 1053.29 1123.43 1097.25 1175.71 1097.35H1237.04V1061.49H1175.71C1150.23 1061.48 1128.69 1043.7 1121.95 1018.44H1267.51C1268.6 1012.57 1269.22 1006.52 1269.22 1000.34C1269.12 947.382 1227.99 903.482 1175.71 903.353Z" fill="black"/>
<path d="M1551.26 921.775C1537.63 910.148 1519.48 903.367 1499.76 903.338C1480.05 903.367 1461.89 910.148 1448.24 921.804C1446.62 923.18 1445.08 924.614 1443.59 926.191C1442.09 924.614 1440.51 923.18 1438.9 921.775C1425.3 910.148 1407.1 903.367 1387.38 903.338C1367.66 903.367 1349.51 910.148 1335.89 921.804C1322.31 933.317 1313.11 950.321 1313.16 969.36V1097.35H1349.25V969.375C1349.25 952.701 1366.32 939.195 1387.41 939.195C1408.45 939.195 1425.5 952.672 1425.54 969.303V1097.35H1461.6V969.375C1461.6 952.701 1478.71 939.195 1499.79 939.195C1520.86 939.195 1537.92 952.701 1537.92 969.375V1097.35H1573.99V969.36C1574.03 950.321 1564.84 933.317 1551.26 921.775Z" fill="black"/>
</g>
<defs>
<clipPath id="clip0_47_4">
<rect width="1574" height="1100" fill="white"/>
</clipPath>
</defs>
</svg>
