<svg width="80" height="81" viewBox="0 0 80 81" fill="none" xmlns="http://www.w3.org/2000/svg">
<mask id="mask0_98_8" style="mask-type:luminance" maskUnits="userSpaceOnUse" x="0" y="0" width="80" height="81">
<path d="M80 0.959961H0V80.96H80V0.959961Z" fill="white"/>
</mask>
<g mask="url(#mask0_98_8)">
<mask id="mask1_98_8" style="mask-type:luminance" maskUnits="userSpaceOnUse" x="12" y="0" width="56" height="81">
<path d="M67.335 0.959961H12.665V80.96H67.335V0.959961Z" fill="white"/>
</mask>
<g mask="url(#mask1_98_8)">
<path d="M35.4229 16.473C34.5379 21.313 31.3029 25.682 26.9059 27.893C29.8168 29.4552 32.2309 31.8029 33.8739 34.669C34.8419 36.356 35.5059 38.402 34.8139 40.199C33.8189 42.716 30.5559 43.545 27.8739 43.13C22.9789 42.384 18.9139 38.817 16.2319 34.641C15.2639 33.148 14.4339 31.516 14.1579 29.747C13.7429 27.424 14.3239 24.99 15.1529 22.723C17.1587 17.1407 20.4785 12.1231 24.8319 8.09399C27.2099 5.88199 29.9479 3.97399 33.0449 3.11699C36.1419 2.25899 46.5669 2.72999 53.7289 6.18699C61.6929 10.389 63.7119 16.805 64.9559 38.097M33.8469 49.325C33.0449 56.68 35.0369 64.064 34.8969 71.447C34.8699 73.107 34.7319 74.821 34.0129 76.342C33.2939 77.862 31.9389 79.135 30.2799 79.356C27.6249 79.688 25.4399 77.254 24.2799 74.821C21.9839 69.981 21.7899 64.423 21.7629 59.086C21.7349 53.224 21.9009 47.362 22.2329 41.499" stroke="black" stroke-width="1.936" stroke-linecap="round" stroke-linejoin="round"/>
<path d="M32.6859 42.522C32.5479 44.375 32.6309 45.979 33.2659 47.721C33.9029 49.463 35.1469 51.067 36.8889 51.731C39.7929 52.864 43.1939 51.067 44.7989 48.412C46.4289 45.758 46.6509 42.495 46.5399 39.398C46.4569 36.881 46.1799 34.254 44.8529 32.098C43.5259 29.94 40.8989 28.419 38.4649 29.083C35.9489 29.774 34.5109 32.457 34.1789 35.056" stroke="black" stroke-width="1.936" stroke-linecap="round" stroke-linejoin="round"/>
<path d="M44.7979 48.5229C45.4889 50.4859 46.8999 52.4499 48.9459 52.8089C51.1299 53.1959 53.2319 51.5649 54.4209 49.7119C57.0759 45.5359 56.7158 39.9499 54.6418 35.4709C53.7848 33.5909 52.5409 31.7649 50.6599 30.9359C48.7799 30.1059 46.1529 30.7139 45.3789 32.6219" stroke="black" stroke-width="1.936" stroke-linecap="round" stroke-linejoin="round"/>
<path d="M54.5597 49.463C55.2507 51.426 56.1907 52.45 58.2647 52.782C60.4497 53.169 62.5507 51.537 63.7397 49.684C66.3947 45.509 66.0357 39.923 63.9617 35.444C63.1037 33.563 61.8597 31.738 59.9797 30.908C58.0997 30.078 55.0577 30.88 54.2827 33.203" stroke="black" stroke-width="1.936" stroke-linecap="round" stroke-linejoin="round"/>
</g>
</g>
</svg>
