<svg width="851" height="300" viewBox="0 0 851 300" fill="none" xmlns="http://www.w3.org/2000/svg">
<path d="M0 250C0 222.386 22.3858 200 50 200H100V250C100 277.614 77.6142 300 50 300C22.3858 300 0 277.614 0 250Z" fill="#3C3C3C"/>
<path d="M100 200H150C177.614 200 200 222.386 200 250C200 277.614 177.614 300 150 300C122.386 300 100 277.614 100 250V200Z" fill="#7E6A6A"/>
<path d="M0 50C0 22.3858 22.3858 0 50 0C77.6142 0 100 22.3858 100 50C100 77.6142 77.6142 100 50 100H0V50Z" fill="#7E6A6A"/>
<path d="M0 100H50C77.6142 100 100 122.386 100 150C100 177.614 77.6142 200 50 200C22.3858 200 0 177.614 0 150V100Z" fill="#3C3C3C"/>
<path d="M100 200H50C22.3858 200 0 177.614 0 150C0 122.386 22.3858 100 50 100C77.6142 100 100 122.386 100 150V200Z" fill="#3C3C3C"/>
<path d="M217 250C217 222.386 239.386 200 267 200H317V250C317 277.614 294.614 300 267 300C239.386 300 217 277.614 217 250Z" fill="#3C3C3C"/>
<path d="M317 50C317 22.3858 339.386 0 367 0C394.614 0 417 22.3858 417 50V100H317V50Z" fill="#3C3C3C"/>
<path d="M217 50C217 22.3858 239.386 0 267 0C294.614 0 317 22.3858 317 50C317 77.6142 294.614 100 267 100H217V50Z" fill="#7E6A6A"/>
<path d="M317 100H417C417 155.228 372.228 200 317 200V100Z" fill="#3C3C3C"/>
<path d="M217 150C217 122.386 239.386 100 267 100C294.614 100 317 122.386 317 150C317 177.614 294.614 200 267 200H217V150Z" fill="#7E6A6A"/>
<path d="M317 200H367C394.614 200 417 222.386 417 250C417 277.614 394.614 300 367 300C339.386 300 317 277.614 317 250V200Z" fill="#7E6A6A"/>
<path d="M434 250C434 222.386 456.386 200 484 200H534V300H484C456.386 300 434 277.614 434 250Z" fill="#3C3C3C"/>
<path d="M534 0H584C611.614 0 634 22.3858 634 50C634 77.6142 611.614 100 584 100H534V0Z" fill="#7E6A6A"/>
<path d="M434 50C434 22.3858 456.386 0 484 0H534V100H484C456.386 100 434 77.6142 434 50Z" fill="#7E6A6A"/>
<path d="M434 150C434 122.386 456.386 100 484 100C511.614 100 534 122.386 534 150V200H484C456.386 200 434 177.614 434 150Z" fill="#3C3C3C"/>
<path d="M534 200H584C611.614 200 634 222.386 634 250C634 277.614 611.614 300 584 300H534V200Z" fill="#7E6A6A"/>
<path d="M651 200H701C728.614 200 751 222.386 751 250C751 277.614 728.614 300 701 300C673.386 300 651 277.614 651 250V200Z" fill="#3C3C3C"/>
<path d="M751 250C751 222.386 773.386 200 801 200H851V250C851 277.614 828.614 300 801 300C773.386 300 751 277.614 751 250Z" fill="#3C3C3C"/>
<path d="M751 150C751 122.386 773.386 100 801 100H851V200H801C773.386 200 751 177.614 751 150Z" fill="#7E6A6A"/>
<path d="M751 0C806.228 0 851 44.7715 851 100H751V0Z" fill="#7E6A6A"/>
<path d="M651 100C651 44.7715 695.772 0 751 0V100H651Z" fill="#3C3C3C"/>
<path d="M651 100H701C728.614 100 751 122.386 751 150C751 177.614 728.614 200 701 200H651V100Z" fill="#7E6A6A"/>
</svg>
