<svg width="7017" height="690" viewBox="0 0 7017 690" fill="none" xmlns="http://www.w3.org/2000/svg">
<g clip-path="url(#clip0_94_55)">
<path d="M7017 0.00012207V569C6888.96 539.303 6760.92 509.606 6617.42 515C6473.92 520.395 6314.96 560.881 6188.6 592C6062.25 623.119 5968.51 644.871 5842.63 617C5716.74 589.129 5558.72 511.636 5418.68 517C5278.65 522.364 5156.59 610.586 5048.34 620C4940.09 629.414 4845.63 560.02 4736.47 536C4627.32 511.981 4503.45 533.336 4361.26 554C4219.07 574.665 4058.55 594.639 3927.57 612C3796.6 629.362 3695.17 644.111 3576.72 620C3458.27 595.889 3322.8 532.919 3186.89 522C3050.98 511.081 2914.62 552.214 2777.56 589C2640.5 625.786 2502.73 658.226 2377.98 631C2253.24 603.774 2141.53 516.883 2002.77 507C1864.01 497.117 1698.21 564.241 1539.84 568C1381.47 571.759 1230.54 512.152 1101.28 513C972.021 513.848 864.44 575.152 765.048 605C665.656 634.849 574.452 633.243 448.308 622C322.165 610.758 161.082 589.879 -4.57764e-05 569V0.00012207L7017 0.00012207Z" fill="#8ED1FC" fill-opacity="0.4"/>
<path d="M7017 -3.05176e-05V394C6844.8 393.38 6672.59 392.759 6568.69 389C6464.79 385.24 6429.19 378.342 6295.81 358C6162.42 337.658 5931.25 303.873 5779.28 331C5627.3 358.127 5554.53 446.165 5443.05 450C5331.57 453.835 5181.39 373.468 5028.85 350C4876.31 326.532 4721.4 359.964 4609.78 374C4498.16 388.036 4429.83 382.676 4317.4 382C4204.98 381.324 4048.45 385.33 3912.95 373C3777.46 360.669 3663 332.001 3532.86 353C3402.73 373.998 3256.91 444.663 3108.92 457C2960.94 469.337 2810.78 423.345 2684.98 412C2559.17 400.655 2457.7 423.957 2329.25 423C2200.8 422.043 2045.37 396.829 1915.06 381C1784.74 365.171 1679.55 358.728 1559.33 352C1439.11 345.272 1303.86 338.258 1154.88 359C1005.9 379.742 843.2 428.238 730.937 449C618.675 469.762 556.852 462.789 443.435 449C330.019 435.211 165.01 414.605 -4.57764e-05 394V-3.05176e-05L7017 -3.05176e-05Z" fill="#8ED1FC" fill-opacity="0.53"/>
<path d="M7017 6.10352e-05V219C6857.78 257.967 6698.56 296.933 6563.82 279C6429.08 261.067 6318.83 186.234 6193.48 179C6068.12 171.766 5927.66 232.131 5798.77 237C5669.88 241.869 5552.56 191.241 5443.05 174C5333.54 156.759 5231.84 172.905 5116.56 191C5001.28 209.095 4872.42 229.139 4746.22 247C4620.03 264.861 4496.5 280.539 4336.9 253C4177.29 225.461 3981.61 154.706 3849.6 159C3717.6 163.294 3649.27 242.637 3537.74 247C3426.21 251.363 3271.48 180.747 3113.79 173C2956.1 165.253 2795.45 220.374 2684.98 230C2574.51 239.626 2514.23 203.756 2402.35 210C2290.47 216.244 2126.98 264.6 1988.15 267C1849.32 269.4 1735.14 225.842 1598.32 230C1461.49 234.158 1302.02 286.032 1159.75 279C1017.49 271.968 892.424 206.03 774.794 184C657.163 161.97 546.964 183.849 419.071 197C291.177 210.151 145.589 214.576 -4.57764e-05 219V6.10352e-05L7017 6.10352e-05Z" fill="#8ED1FC"/>
</g>
<defs>
<clipPath id="clip0_94_55">
<rect width="7017" height="690" fill="white"/>
</clipPath>
</defs>
</svg>
